<?xml version="1.0" encoding="utf-8"?>
<!-- Generator: Adobe Illustrator 22.0.1, SVG Export Plug-In . SVG Version: 6.00 Build 0)  -->
<svg version="1.1" id="Capa_1" xmlns="http://www.w3.org/2000/svg" xmlns:xlink="http://www.w3.org/1999/xlink" x="0px" y="0px"
	 viewBox="0 0 500 500" style="enable-background:new 0 0 500 500;" xml:space="preserve">
<style type="text/css">
	.st0{fill:#004AFA;}
</style>
<g>
	<polygon class="st0" points="430.2,31 377.8,31 273.1,247.9 280.5,270.4 400.2,53.4 475,442.4 452.6,442.4 400.2,105.8 
		377.8,135.7 430.2,457.4 490,457.4 	"/>
	<polygon class="st0" points="71.1,38.5 11.2,464.9 123.5,464.9 138.4,330.2 116,300.3 101,442.4 33.7,442.4 93.5,113.3 
		280.5,457.4 281.1,455.9 340.4,337.7 340.4,292.8 280.5,412.5 	"/>
	<polygon class="st0" points="56.1,427.5 86,427.5 108.5,240.5 235.7,464.9 258.1,464.9 101,165.7 	"/>
	<polygon class="st0" points="273.1,315.3 123.5,31 93.5,31 273.1,367.6 280.5,367.6 355.3,233 377.8,464.9 415.2,464.9 
		362.8,165.7 	"/>
</g>
</svg>
